<svg width="653" height="1705" viewBox="0 0 653 1705" fill="none" xmlns="http://www.w3.org/2000/svg">
<path d="M44 769L88 780.5C96.4 770.1 95.8333 755.167 94.4999 749C114.1 716.2 154.333 612.333 172 564.5C171.6 589.7 183.833 675 190 714.5L257 716.5C257 631 256.6 499.2 257 486C257.4 472.8 255.756 386.557 250.5 352.5C247.86 335.393 242 309 242 309C178.5 323 148.5 359.5 117.5 434C92.6999 493.6 61.1666 665.5 48.5 744C43.3 750.4 43.3333 763.333 44 769Z" fill="#444444"/>
<path d="M608.057 768L564.057 779.5C555.657 769.1 556.224 754.167 557.557 748C537.957 715.2 497.724 611.333 480.057 563.5C480.457 588.7 468.224 674 462.057 713.5L395.057 715.5C395.057 630 395.457 498.2 395.057 485C394.657 471.8 396.301 385.557 401.557 351.5C404.197 334.393 410.057 308 410.057 308C473.557 322 503.557 358.5 534.557 433C559.357 492.6 590.891 664.5 603.557 743C608.757 749.4 608.724 762.333 608.057 768Z" fill="#444444"/>
</svg>
