<svg width="988" height="988" viewBox="0 0 988 988" fill="none" xmlns="http://www.w3.org/2000/svg">
<g clip-path="url(#clip0_85_1122)">
<path d="M0.0666154 937.678L77.0892 957.808C91.7935 939.603 90.8015 913.462 88.4675 902.667C122.777 845.25 193.206 663.431 224.132 579.698C223.432 623.811 244.847 773.129 255.641 842.275L372.926 845.776C372.926 696.107 372.225 465.389 372.926 442.283C373.626 419.176 370.748 268.206 361.547 208.589C356.926 178.644 346.668 132.442 346.668 132.442C235.51 156.949 182.995 220.843 128.729 351.256C85.3165 455.586 30.1171 756.5 7.94392 893.915C-1.15874 905.118 -1.10039 927.758 0.0666154 937.678Z" fill="black"/>
<path d="M987.456 935.927L910.433 956.058C895.729 937.853 896.721 911.712 899.055 900.917C864.745 843.5 794.316 661.68 763.39 577.947C764.09 622.06 742.676 771.379 731.881 840.524L614.596 844.025C614.596 694.356 615.297 463.639 614.596 440.532C613.896 417.425 616.774 266.455 625.975 206.839C630.596 176.893 640.854 130.691 640.854 130.691C752.012 155.199 804.527 219.092 858.793 349.505C902.206 453.836 957.405 754.749 979.578 892.164C988.681 903.367 988.623 926.007 987.456 935.927Z" fill="black"/>
</g>
<defs>
<clipPath id="clip0_85_1122">
<rect width="988" height="988" fill="white"/>
</clipPath>
</defs>
</svg>
