<svg width="407" height="378" viewBox="0 0 407 378" fill="none" xmlns="http://www.w3.org/2000/svg">
<path d="M324.8 240.31C317.7 265.51 317.73 292.67 324.87 317.85C326.8 324.63 328.33 332.86 327.2 339.82C324.06 358.96 317.24 362.2 307.61 371.84C270.5 379.18 241.15 377.32 203.44 376.92C165.73 377.32 136.39 379.18 99.28 371.84C89.64 362.2 82.8201 358.96 79.6901 339.82C78.5501 332.86 80.08 324.63 82.01 317.85C89.15 292.67 89.1801 265.51 82.0801 240.31C50.4001 216.4 21.83 186.82 0 152.88C13.48 122.85 27.4301 95.2699 43.1101 68.6999C49.4301 57.9799 56.17 47.2699 65.51 39.0499C88.43 18.8799 122.47 17.2199 149.59 0.149902C161.87 16.9399 180.82 28.6799 203.44 30.3699C226.06 28.6799 245.01 16.9399 257.29 0.149902C284.41 17.2199 318.45 18.8799 341.37 39.0499C350.71 47.2699 357.45 57.9799 363.77 68.6999C379.45 95.2699 393.4 122.85 406.88 152.88C385.05 186.82 356.48 216.4 324.8 240.31Z" fill="black"/>
</svg>
