<svg width="542" height="790" viewBox="0 0 542 790" fill="none" xmlns="http://www.w3.org/2000/svg">
<path d="M542 384.86L517.895 412.096L498.17 400.199L484.395 336.647L358.23 248.364L329.742 389.012L369.529 725.789L381.169 752.169L395.909 778.934L373.797 789.019L340.437 782.813L347.031 731.997L270.999 399.357L194.969 731.997L201.563 782.813L168.203 789.019L146.091 778.934L160.831 752.169L172.471 725.789L212.258 389.012L183.77 248.364L57.6047 336.647L43.8299 400.199L24.105 412.096L0 384.86L0.312863 368.892L0.938571 356.685L45.0814 322.246L175.63 150.374L247.322 134.722L246.696 113.433L245.42 106.304C227.834 96.8092 215.888 78.2141 215.888 56.8277C215.888 25.7944 241.047 0.635437 272.08 0.635437C303.113 0.635437 328.272 25.7944 328.272 56.8277C328.272 79.1648 315.239 98.4555 296.364 107.513L295.304 113.433L294.678 134.722L366.37 150.374L496.919 322.246L541.061 356.685L541.687 368.892L542 384.86Z" fill="#7C7C7C"/>
</svg>
