<svg width="653" height="1705" viewBox="0 0 653 1705" fill="none" xmlns="http://www.w3.org/2000/svg">
<path d="M452.879 540.715C445.602 566.498 445.633 613.286 452.95 639.048C454.928 645.985 456.496 654.405 455.338 661.526C452.12 681.109 445.131 684.424 435.261 694.287C397.228 701.797 367.148 699.894 328.5 699.485C289.852 699.894 259.782 701.797 221.749 694.287C211.87 684.424 204.88 681.109 201.672 661.526C200.504 654.405 202.072 645.985 204.05 639.048C211.367 613.286 211.398 566.498 204.122 540.715C171.654 516.252 142.373 485.988 120 451.263C133.815 420.538 148.112 392.32 164.182 365.136C170.66 354.168 177.567 343.21 187.139 334.8C210.629 314.163 245.516 312.465 273.311 295C285.896 312.178 305.317 324.19 328.5 325.919C351.683 324.19 371.104 312.178 383.689 295C411.484 312.465 446.371 314.163 469.861 334.8C479.433 343.21 486.341 354.168 492.818 365.136C508.888 392.32 523.185 420.538 537 451.263C514.627 485.988 485.346 516.252 452.879 540.715Z" fill="black"/>
</svg>
