<svg width="654" height="1706" viewBox="0 0 654 1706" fill="none" xmlns="http://www.w3.org/2000/svg">
<path d="M263.67 188.61C263.64 188.66 263.61 188.7 263.57 188.74C263.06 189.31 262.4 189.65 261.68 189.85C260.83 190.1 259.89 190.15 259 190.14C250.98 190.06 243.02 187.14 236.86 182.01C230.7 176.88 226.38 169.58 224.85 161.71C224 157.34 224.1 152.47 226.72 148.86C229.24 145.37 233.81 143.72 238.12 144.03C238.18 144.03 238.25 144.04 238.31 144.04C242.67 144.4 246.72 146.54 250.1 149.33C261.09 158.4 263.18 171.66 264.39 183.35C264.41 183.56 264.43 183.77 264.45 183.98C264.61 185.58 264.67 187.37 263.67 188.61Z" fill="#CA8870"/>
<path d="M652.03 848.74C650.95 849.36 649.59 848.9 648.45 848.41C641.42 845.39 634.74 841.56 628.01 836.93C626.93 840.72 627.44 844.76 627.89 848.69C630.12 868.18 630.73 888.02 636.17 906.87C637.32 910.88 638.71 914.91 638.73 919.08C638.74 919.67 638.7 920.29 638.39 920.79C637.89 921.6 636.76 921.84 635.84 921.58C634.92 921.31 634.16 920.66 633.48 919.99C627.7 914.37 624.53 906.66 621.74 898.37C620.99 904.73 621.91 911.29 624.39 917.2C624.95 918.54 625.6 919.91 625.56 921.36C625.51 922.82 624.48 924.37 623.03 924.4C622.65 924.41 622.28 924.32 621.92 924.21C618.59 923.14 616.31 920.1 615.05 917.2C615.01 918.17 615.34 919.12 615.47 920.08C615.6 921.05 615.47 922.15 614.72 922.78C614.01 923.37 612.98 923.34 612.05 923.27C610.91 923.19 609.72 923.09 608.77 922.45C608.04 921.96 607.54 921.19 607.06 920.44C604.73 916.78 602.4 913.12 600.43 908.92C600.93 909.94 600.16 911.26 599.07 911.6C597.98 911.93 596.77 911.47 595.93 910.71C595.09 909.94 594.54 908.92 594.01 907.91C589.84 900.04 585.81 892.1 582.45 883.79C576.5 864.59 571.17 845.18 566.49 825.62C565.45 821.27 564.43 816.86 564.34 812.38C564.1 800.84 569.97 789.85 569.9 778.3C569.87 773.53 568.83 768.82 567.58 764.21C564.96 754.48 561.43 745 558.8 736.3C537.63 689.86 521.16 641.28 509.71 591.54C509.07 588.75 508.44 585.94 507.31 583.31C506.33 581.04 504.99 578.94 503.66 576.85C489.91 555.26 476.15 533.68 462.4 512.09C458.86 506.55 455.3 500.94 447.9 491.35C434.59 547.66 428.98 605.79 430.96 670.6C430.28 976.21 422.91 1281.82 407.67 1588.33C418.21 1625.63 454.46 1649.77 477.57 1680.89C479.28 1683.19 481.02 1685.64 481.36 1688.49C481.69 1691.33 480.04 1694.62 477.36 1696.53C473.98 1703.11 465.71 1706.74 458.58 1704.76C454.48 1703.63 450.98 1700.92 448 1697.87C448.33 1701.85 443.47 1704.63 439.56 1703.81C435.65 1702.99 432.68 1699.89 429.98 1696.95C414.87 1680.52 399.77 1664.09 384.66 1647.65C380.66 1643.3 376.58 1638.84 374.28 1633.39C370.81 1625.16 371.85 1615.66 374.52 1607.14C376.42 1601.09 379.65 1594.91 381.73 1588.67C382.08 1587.6 382.4 1586.53 382.67 1585.46H382.68V1585.42C382.68 1304.7 360.58 1055.03 329.66 789.8C329.42 788.12 328.4 786.68 327.04 785.63C325.68 786.68 324.66 788.12 324.42 789.8C293.5 1055.03 271.4 1304.7 271.4 1585.42V1585.46H271.41C271.68 1586.53 272 1587.6 272.35 1588.67C274.43 1594.91 277.66 1601.09 279.56 1607.14C282.23 1615.66 283.27 1625.16 279.8 1633.39C277.5 1638.84 273.42 1643.3 269.42 1647.65C254.31 1664.09 239.21 1680.52 224.1 1696.95C221.4 1699.89 218.43 1702.99 214.52 1703.81C210.61 1704.63 205.75 1701.85 206.08 1697.87C203.1 1700.92 199.6 1703.63 195.5 1704.76C188.37 1706.74 180.1 1703.11 176.72 1696.53C174.04 1694.62 172.39 1691.33 172.72 1688.49C173.06 1685.64 174.8 1683.19 176.51 1680.89C199.62 1649.77 235.87 1625.63 246.41 1588.33C231.17 1281.82 223.8 976.21 223.12 670.6C225.1 605.79 219.49 547.66 206.18 491.35C198.78 500.94 195.22 506.55 191.68 512.09C177.93 533.68 164.17 555.26 150.42 576.85C149.09 578.94 147.75 581.04 146.77 583.31C145.64 585.94 145.01 588.75 144.37 591.54C132.92 641.28 116.45 689.86 95.28 736.3C92.65 745 89.12 754.48 86.5 764.21C85.25 768.82 84.21 773.53 84.18 778.3C84.11 789.85 89.98 800.84 89.74 812.38C89.65 816.86 88.6299 821.27 87.5899 825.62C82.9099 845.18 77.58 864.59 71.63 883.79C68.27 892.1 64.2399 900.04 60.0699 907.91C59.5399 908.92 58.99 909.94 58.15 910.71C57.31 911.47 56.1 911.93 55.01 911.6C53.92 911.26 53.15 909.94 53.65 908.92C51.68 913.12 49.35 916.78 47.02 920.44C46.54 921.19 46.04 921.96 45.31 922.45C44.36 923.09 43.17 923.19 42.03 923.27C41.1 923.34 40.0699 923.37 39.3599 922.78C38.6099 922.15 38.4799 921.05 38.6099 920.08C38.7399 919.12 39.07 918.17 39.03 917.2C37.77 920.1 35.49 923.14 32.16 924.21C31.8 924.32 31.43 924.41 31.05 924.4C29.6 924.37 28.57 922.82 28.52 921.36C28.48 919.91 29.1299 918.54 29.6899 917.2C32.1699 911.29 33.0899 904.73 32.3399 898.37C29.5499 906.66 26.3799 914.37 20.5999 919.99C19.9199 920.66 19.16 921.31 18.24 921.58C17.32 921.84 16.1899 921.6 15.6899 920.79C15.3799 920.29 15.3399 919.67 15.3499 919.08C15.3699 914.91 16.76 910.88 17.91 906.87C23.35 888.02 23.9599 868.18 26.1899 848.69C26.6399 844.76 27.1499 840.72 26.0699 836.93C19.3399 841.56 12.66 845.39 5.62996 848.41C4.48996 848.9 3.13001 849.36 2.05001 848.74C1.09001 848.18 0.740014 846.91 0.930014 845.82C1.12001 844.73 1.73994 843.77 2.34994 842.84C13.1299 831.63 23.96 820.65 34.79 809.67C37.23 807.19 39.69 804.69 41.68 801.83C44.08 798.36 45.7199 794.44 47.3499 790.55C49.6999 784.95 52.05 779.35 54.39 773.75C66.36 731.55 69.4199 687.08 80.9599 644.6C84.7499 630.66 89.44 616.97 94.13 603.3C98.63 590.17 103.14 577.04 107.64 563.91C111.75 538.35 118.15 517.59 124.77 493.37C130.02 474.15 134.66 451.31 142.61 433.05C149.54 408.26 154.73 396.04 163.75 375.32C169.27 362.64 173.33 354.13 179.9 345.57C181.6 343.35 188.21 337.69 190.19 335.71C192.79 333.12 207.2 325.52 210.52 323.98C216.15 321.37 221.2 319.07 225.91 316.94C243.54 309.02 256.49 303.61 277.53 293.83C283 291.29 288.67 288.6 292.46 283.92C295.83 279.75 297.37 274.4 298.28 269.12C298.86 265.77 299.22 262.39 299.34 258.99C299.47 255.5 299.37 252 299.02 248.53C298.54 243.52 297.57 238.55 296.11 233.72C296.21 233.56 296.31 233.41 296.41 233.26C300.8 235.86 305.42 238.06 310.2 239.81C313.44 241 316.76 241.99 320.12 242.76C322.41 243.28 324.72 243.71 327.05 244.02C329.37 243.71 331.68 243.28 333.96 242.76C342.29 240.85 350.31 237.62 357.67 233.27C357.77 233.42 357.87 233.57 357.97 233.72C356.8 237.61 355.93 241.59 355.39 245.62C354.33 253.41 354.46 261.36 355.8 269.12C356.71 274.4 358.25 279.75 361.62 283.92C365.41 288.6 371.08 291.29 376.55 293.83C397.59 303.61 410.54 309.02 428.17 316.94C432.88 319.07 437.93 321.37 443.56 323.98C446.88 325.52 461.29 333.12 463.89 335.71C465.87 337.69 472.48 343.35 474.18 345.57C480.75 354.13 484.81 362.64 490.33 375.32C499.35 396.04 504.54 408.26 511.47 433.05C519.42 451.31 524.06 474.15 529.31 493.37C535.93 517.59 542.33 538.35 546.44 563.91C550.94 577.04 555.45 590.17 559.95 603.3C564.64 616.97 569.33 630.66 573.12 644.6C584.66 687.08 587.72 731.55 599.69 773.75C602.03 779.35 604.38 784.95 606.73 790.55C608.36 794.44 610 798.36 612.4 801.83C614.39 804.69 616.85 807.19 619.29 809.67C630.12 820.65 640.95 831.63 651.73 842.84C652.34 843.77 652.96 844.73 653.15 845.82C653.34 846.91 652.99 848.18 652.03 848.74Z" fill="#F2C4AC"/>
<path d="M271.41 1585.46L271.4 1585.42C271.4 1585.43 271.4 1585.45 271.41 1585.46Z" stroke="#FFFB00" stroke-miterlimit="10"/>
<path d="M403.98 149.33C407.35 146.55 411.41 144.4 415.77 144.04C420.13 143.68 424.79 145.32 427.36 148.86C429.98 152.47 430.07 157.34 429.22 161.71C427.69 169.58 423.37 176.88 417.21 182.01C411.05 187.14 403.09 190.06 395.07 190.14C393.43 190.16 391.59 189.97 390.5 188.74C389.4 187.5 389.45 185.64 389.62 183.98C390.83 172.14 392.79 158.56 403.98 149.33Z" fill="#CA8870"/>
<path d="M414.65 112.91C413.97 133.52 407.02 153.34 400.16 172.78C395.98 184.61 391.74 196.56 384.97 207.13C379.62 215.51 372.65 222.8 364.63 228.67C355.49 235.38 344.99 240.23 333.96 242.76C331.68 243.28 329.37 243.71 327.05 244.02C324.72 243.71 322.41 243.28 320.12 242.76C316.76 241.99 313.44 241 310.2 239.81C300.83 236.37 292.06 231.22 284.47 224.73C278.53 219.64 273.32 213.72 269.1 207.13C262.34 196.56 258.1 184.61 253.92 172.78C247.05 153.34 240.11 133.52 239.43 112.91C238.62 88.3202 247.19 63.5302 263.02 44.6902C278.46 26.3202 300.64 13.7802 324.51 10.8702C325.65 10.7302 326.2 10.6802 327.01 10.6602C327.45 10.6602 327.89 10.6802 328.33 10.7302C337.34 11.7002 346.12 14.0402 354.4 17.5602C368.5 23.5402 381.16 32.9202 391.05 44.6902C406.89 63.5302 415.46 88.3202 414.65 112.91Z" fill="#F2C4AC"/>
<path d="M357.97 233.72C356.8 237.61 355.93 241.59 355.39 245.62C355.16 245.87 354.92 246.12 354.69 246.36C347.7 253.67 340.71 260.99 333.73 268.31C331.67 270.47 329.27 272.78 326.29 272.76C323.8 272.74 321.66 271.07 319.77 269.45C312.31 263.05 305.37 256.04 299.02 248.53C298.54 243.52 297.57 238.55 296.11 233.72C296.21 233.56 296.31 233.41 296.41 233.26C300.8 235.86 305.42 238.06 310.2 239.81C313.44 241 316.76 241.99 320.12 242.76C322.41 243.28 324.72 243.71 327.05 244.02C329.37 243.71 331.68 243.28 333.96 242.76C342.29 240.85 350.31 237.62 357.67 233.27C357.77 233.42 357.87 233.57 357.97 233.72Z" fill="#CA8870"/>
<path d="M302.19 148.62C301.77 150.32 301.22 151.98 300.54 153.6C298.15 159.26 293.97 164.33 288.39 166.93C282.82 169.54 275.83 169.38 270.82 165.8C267.39 163.35 265.14 159.55 263.62 155.62C262.62 153.02 261.91 150.31 261.49 147.55C260.74 142.59 260.93 137.49 262.11 132.61C266.21 130.72 270.55 129.54 274.94 129.03C281.9 128.22 288.98 129.13 295.4 131.66C298.08 132.7 300.64 134.04 303.03 135.64C303.47 139.95 303.23 144.37 302.19 148.62Z" fill="#EBEBEB"/>
<path d="M302.19 148.62C301.77 150.32 301.22 151.98 300.54 153.6C298.15 159.26 293.97 164.33 288.39 166.93C282.82 169.54 275.83 169.38 270.82 165.8C267.39 163.35 265.14 159.55 263.62 155.62C262.62 153.02 261.91 150.31 261.49 147.55C268.91 145.67 276.81 145.82 284.52 145.71C288 145.65 291.5 145.55 294.93 146.09C297.47 146.49 300 147.29 302.19 148.62Z" fill="#F7F7F7"/>
<path d="M296.39 138.81C296.41 142.82 296.1 146.91 294.63 150.65C293.15 154.38 290.35 157.74 286.58 159.13C282.99 160.45 278.81 159.8 275.59 157.72C272.37 155.64 270.11 152.24 269.1 148.54C268.1 144.84 268.29 140.88 269.31 137.19C270.21 133.92 272.04 130.59 274.94 129.03C281.9 128.22 288.98 129.13 295.4 131.66C296.21 133.89 296.38 136.4 296.39 138.81Z" fill="#21211B"/>
<path d="M263.75 141.69C263.27 139.18 265.12 136.45 267.64 135.97C270.15 135.49 272.88 137.33 273.37 139.84C273.86 142.35 272.03 145.08 269.51 145.58C267 146.08 264.24 144.26 263.75 141.69Z" fill="#FFFAFA"/>
<path d="M272.21 145.2C271.46 146.28 272.09 148.03 273.36 148.38C274.63 148.74 276.07 147.57 275.99 146.26C275.92 144.94 273.62 143.17 272.21 145.2Z" fill="#FFFAFA"/>
<path d="M354.7 148.62C355.12 150.32 355.67 151.98 356.35 153.6C358.74 159.26 362.92 164.33 368.5 166.93C374.07 169.54 381.06 169.38 386.07 165.8C389.5 163.35 391.75 159.55 393.27 155.62C394.27 153.02 394.98 150.31 395.4 147.55C396.15 142.59 395.96 137.49 394.78 132.61C390.68 130.72 386.34 129.54 381.95 129.03C374.99 128.22 367.91 129.13 361.49 131.66C358.81 132.7 356.25 134.04 353.86 135.64C353.42 139.95 353.66 144.37 354.7 148.62Z" fill="#EBEBEB"/>
<path d="M354.7 148.62C355.12 150.32 355.67 151.98 356.35 153.6C358.74 159.26 362.92 164.33 368.5 166.93C374.07 169.54 381.06 169.38 386.07 165.8C389.5 163.35 391.75 159.55 393.27 155.62C394.27 153.02 394.98 150.31 395.4 147.55C387.98 145.67 380.08 145.82 372.37 145.71C368.89 145.65 365.39 145.55 361.96 146.09C359.42 146.49 356.89 147.29 354.7 148.62Z" fill="#F7F7F7"/>
<path d="M360.5 138.81C360.48 142.82 360.79 146.91 362.26 150.65C363.74 154.38 366.54 157.74 370.31 159.13C373.9 160.45 378.08 159.8 381.3 157.72C384.52 155.64 386.78 152.24 387.79 148.54C388.79 144.84 388.6 140.88 387.58 137.19C386.68 133.92 384.85 130.59 381.95 129.03C374.99 128.22 367.91 129.13 361.49 131.66C360.68 133.89 360.51 136.4 360.5 138.81Z" fill="#21211B"/>
<path d="M393.14 141.69C393.62 139.18 391.77 136.45 389.25 135.97C386.74 135.49 384.01 137.33 383.52 139.84C383.03 142.35 384.86 145.08 387.38 145.58C389.89 146.08 392.65 144.26 393.14 141.69Z" fill="#FFFAFA"/>
<path d="M384.68 145.2C385.43 146.28 384.8 148.03 383.53 148.38C382.26 148.74 380.82 147.57 380.9 146.26C380.98 144.94 383.28 143.17 384.68 145.2Z" fill="#FFFAFA"/>
<path d="M326.34 181.08C326.76 175.72 331.43 171 336.79 170.54C338.5 170.39 340.4 170.72 341.5 172.02C342.33 172.99 342.56 174.34 342.52 175.62C342.38 179.44 339.94 182.94 336.72 184.99C333.49 187.04 329.58 187.78 325.76 187.78" stroke="#1A1A1A" stroke-miterlimit="10"/>
<path d="M305.98 208.73C312.73 212.51 320.51 214.45 328.25 214.28C335.99 214.11 343.67 211.82 350.25 207.74" stroke="#1A1A1A" stroke-miterlimit="10"/>
<path d="M296.96 183.83C290.42 174.98 277.93 171.08 267.51 174.62C263.95 175.83 262.24 180.69 264.25 183.86C267.22 188.55 271.85 192.16 277.12 193.9C282.39 195.64 288.26 195.49 293.44 193.5C296.95 192.14 299.25 186.93 296.96 183.83Z" fill="#F2B2AC"/>
<path d="M356.93 183.83C363.47 174.98 375.96 171.08 386.38 174.62C389.94 175.83 391.65 180.69 389.64 183.86C386.67 188.55 382.04 192.16 376.77 193.9C371.5 195.64 365.63 195.49 360.45 193.5C356.94 192.14 354.64 186.93 356.93 183.83Z" fill="#F2B2AC"/>
<path d="M352.35 121.11C352.69 123.18 355.62 124.27 357.23 122.92C367.22 114.5 382.76 113.48 393.78 120.51C394.25 119.94 394.73 119.36 395.2 118.79C388.95 114.17 381.16 111.67 373.38 111.81C365.61 111.94 357.91 114.7 352.35 121.11Z" fill="black"/>
<path d="M303.62 121.11C303.28 123.18 300.35 124.27 298.74 122.92C288.75 114.5 273.21 113.48 262.19 120.51C261.72 119.94 261.24 119.36 260.77 118.79C267.02 114.17 274.81 111.67 282.59 111.81C290.36 111.94 298.07 114.7 303.62 121.11Z" fill="black"/>
<path d="M395.36 243.23C396.7 244.35 398.05 245.48 399.39 246.6C399.77 246.92 399.72 247.53 399.28 247.76C389.31 253.21 378.46 257.06 367.28 259.11C363.18 259.86 358.64 260.28 355.05 258.33C354.83 258.21 354.68 257.97 354.68 257.71C354.52 249.66 355.62 241.58 357.95 233.87C357.93 233.83 357.9 233.8 357.87 233.76C358.27 233.35 358.7 232.93 359.12 232.54C359.15 232.51 359.19 232.48 359.23 232.46C369.5 226.09 378.4 217.5 384.92 207.31C386.5 204.85 387.95 202.3 389.29 199.7C389.3 199.69 389.3 199.68 389.31 199.67C391.16 196.64 392.89 193.52 394.48 190.34C394.66 190.35 394.84 190.35 395.02 190.35C403.03 190.27 410.98 187.35 417.13 182.23C423.28 177.11 427.6 169.81 429.13 161.95C430.32 155.84 429.65 148.76 422.82 145.51C420.53 144.42 417.95 144.09 415.42 144.32C413.38 144.51 411.04 144.87 409.15 145.69C409 145.8 408.86 145.91 408.71 146.01C406.88 133.83 405.61 125.49 392.89 110.76V110.75C388.88 107.28 384.57 104.14 380.16 101.26C367.15 92.7802 352.99 86.1302 340.33 77.1502C327.68 68.2002 316.27 56.3401 311.95 41.4701C311.93 41.4001 311.9 41.3302 311.86 41.2702C311.62 40.9202 311.4 40.9302 311.22 40.5302C281.24 68.7002 256.31 105.39 245.47 145.43C245.34 145.9 244.8 146.09 244.4 145.83C243.56 145.3 242.79 145.01 241.92 144.74C239.96 144.16 239.97 144.26 238.47 144.15C238.42 144.15 238.37 144.15 238.32 144.16C234.01 143.85 229.45 145.5 226.93 148.98C224.31 152.59 224.21 157.45 225.06 161.82C226.59 169.68 230.9 176.97 237.06 182.1C243.21 187.22 251.16 190.14 259.17 190.22C259.42 190.22 259.68 190.22 259.93 190.21C260.23 190.2 260.5 190.36 260.62 190.64C262.21 194.44 263.94 198.17 265.91 201.78C266.92 203.67 268.01 205.53 269.17 207.33C276.02 218.04 285.51 226.97 296.45 233.43C296.35 233.58 296.25 233.73 296.15 233.89C298.58 241.92 299.66 250.34 299.39 258.73C299.38 258.98 299.24 259.21 299.03 259.34C294.74 261.77 289.58 262.82 284.62 262.48C277.02 261.96 269.87 258.58 263.61 254.22C263.31 254.01 263.22 253.61 263.4 253.29C264.08 252.08 264.76 250.86 265.44 249.65C265.72 249.15 265.32 248.55 264.75 248.6C254.14 249.5 243.57 244.82 235.34 237.99C226.99 231.06 220.65 222.05 214.48 213.11C214.61 212.65 214.65 212.52 214.79 212.06C216.23 211.45 217.66 210.84 219.1 210.24C219.65 210.01 219.68 209.26 219.15 208.97C209.88 203.93 202.01 196.54 194.41 189.13C194.15 188.87 194.13 188.46 194.37 188.18C201.39 179.79 205.5 169.27 207.95 158.59C210.44 147.7 211.32 136.52 212.65 125.43C215.79 99.6702 221.7 73.7101 235.19 51.5401C248.67 29.3801 268.39 11.8602 295.19 7.93016C301.32 7.71016 302.4 7.79016 307.27 8.55016C307.44 8.58016 307.61 8.51014 307.75 8.41014C318.34 0.300143 328.43 0.460192 339.4 0.460192C350.28 0.460192 360.34 2.44016 372.46 7.86016C372.49 7.88016 372.53 7.89019 372.56 7.90019C388.71 14.2702 403.02 25.4702 412.97 39.8402C428.36 62.0502 429.06 81.7201 434.06 108.29C439.04 134.71 445.28 162.23 462.69 182.71C462.86 182.91 462.91 183.18 462.81 183.42C452.11 211.53 425.94 233.8 395.63 242.03C395.08 242.16 394.92 242.86 395.36 243.23Z" fill="black"/>
</svg>
