<svg width="988" height="988" viewBox="0 0 988 988" fill="none" xmlns="http://www.w3.org/2000/svg">
<path d="M760.855 606.804C745.272 661.977 745.338 762.099 761.009 817.228C765.244 832.072 768.603 850.09 766.122 865.328C759.231 907.233 744.263 914.327 723.127 935.433C641.68 951.503 577.264 947.431 494.5 946.555C411.736 947.431 347.342 951.503 265.895 935.433C244.737 914.327 229.769 907.233 222.9 865.328C220.398 850.09 223.756 832.072 227.991 817.228C243.662 762.099 243.728 661.977 228.145 606.804C158.616 554.456 95.9114 489.694 48 415.386C77.5852 349.638 108.202 289.255 142.616 231.083C156.487 207.612 171.279 184.164 191.778 166.167C242.082 122.007 316.791 118.373 376.313 81C403.264 117.76 444.855 143.463 494.5 147.163C544.145 143.463 585.736 117.76 612.687 81C672.209 118.373 746.918 122.007 797.222 166.167C817.721 184.164 832.514 207.612 846.384 231.083C880.798 289.255 911.415 349.638 941 415.386C893.089 489.694 830.385 554.456 760.855 606.804Z" fill="black"/>
</svg>
