<svg width="653" height="1705" viewBox="0 0 653 1705" fill="none" xmlns="http://www.w3.org/2000/svg">
<path d="M464.809 554.904C456.835 583.225 456.868 613.749 464.888 642.048C467.056 649.668 468.774 658.917 467.505 666.739C463.978 688.249 456.318 691.891 445.502 702.725C403.821 710.974 370.855 708.883 328.5 708.434C286.145 708.883 253.191 710.974 211.509 702.725C200.682 691.891 193.022 688.249 189.506 666.739C188.226 658.917 189.944 649.668 192.112 642.048C200.132 613.749 200.165 583.225 192.191 554.904C156.608 528.033 124.519 494.789 100 456.646C115.14 422.897 130.809 391.901 148.42 362.04C155.519 349.992 163.089 337.956 173.58 328.718C199.323 306.05 237.556 304.184 268.017 285C281.809 303.869 303.094 317.063 328.5 318.963C353.906 317.063 375.191 303.869 388.983 285C419.444 304.184 457.677 306.05 483.42 328.718C493.911 337.956 501.481 349.992 508.58 362.04C526.191 391.901 541.859 422.897 557 456.646C532.481 494.789 500.392 528.033 464.809 554.904Z" fill="black"/>
</svg>
